<svg width="482" height="136" viewBox="0 0 482 136" fill="none" xmlns="http://www.w3.org/2000/svg">
<g clip-path="url(#clip0_26_89)">
<rect width="482" height="136"/>
<path d="M53.3295 66.5267H37.3492L19.9753 38.4811L14.0292 42.7671V66.5267H0V0H14.0292V30.4681C14.9583 29.1637 15.8874 27.8592 16.8164 26.5548C17.7455 25.2503 18.6746 23.9459 19.6037 22.6414L37.535 0H53.1437L30.0095 29.4432L53.3295 66.5267Z" fill="#D63C46"/>
<path d="M81.3937 14.6284C88.207 14.6284 93.4098 16.1192 97.0023 19.1008C100.657 22.0203 102.484 26.5237 102.484 32.6111V66.5267H92.8214L90.1271 59.6318H89.7554C87.5876 62.3649 85.2958 64.3526 82.8802 65.5949C80.4646 66.8373 77.1509 67.4584 72.939 67.4584C68.4174 67.4584 64.6701 66.154 61.6971 63.5451C58.724 60.9362 57.2375 56.8676 57.2375 51.3392C57.2375 45.9351 59.1266 41.9596 62.9049 39.4129C66.6832 36.8661 72.3506 35.4374 79.9071 35.1268L88.7334 34.8473V32.6111C88.7334 29.9401 88.0211 27.9834 86.5966 26.7411C85.2339 25.4988 83.3138 24.8776 80.8362 24.8776C78.3587 24.8776 75.943 25.2503 73.5894 25.9957C71.2357 26.679 68.882 27.5486 66.5283 28.6046L61.9758 19.194C64.6392 17.8274 67.6432 16.7404 70.9879 15.9329C74.3326 15.0632 77.8012 14.6284 81.3937 14.6284ZM88.7334 42.9535L83.3448 43.1398C78.8851 43.2641 75.7882 44.0716 74.0539 45.5624C72.3196 47.0532 71.4525 49.0099 71.4525 51.4324C71.4525 53.5443 72.0719 55.0662 73.3106 55.9979C74.5494 56.8676 76.1598 57.3024 78.1419 57.3024C81.115 57.3024 83.6235 56.4328 85.6675 54.6935C87.7115 52.8921 88.7334 50.3764 88.7334 47.1464V42.9535Z" fill="#D63C46"/>
<path d="M152.052 51.4324C152.052 56.5881 150.225 60.5635 146.57 63.3587C142.978 66.0919 137.589 67.4584 130.404 67.4584C126.874 67.4584 123.839 67.21 121.299 66.713C118.76 66.2782 116.22 65.5328 113.681 64.4768V53.0164C116.406 54.2587 119.348 55.2836 122.507 56.0911C125.666 56.8986 128.453 57.3024 130.869 57.3024C133.532 57.3024 135.452 56.8986 136.629 56.0911C137.806 55.2836 138.395 54.2276 138.395 52.9232C138.395 52.0536 138.147 51.2771 137.651 50.5938C137.218 49.9105 136.227 49.1341 134.678 48.2645C133.13 47.3948 130.714 46.2767 127.431 44.9102C124.21 43.5436 121.578 42.2081 119.534 40.9037C117.552 39.5371 116.065 37.9221 115.074 36.0586C114.083 34.133 113.588 31.7415 113.588 28.8841C113.588 24.1633 115.415 20.6227 119.07 18.2622C122.724 15.9018 127.586 14.7216 133.656 14.7216C136.815 14.7216 139.819 15.0322 142.668 15.6533C145.517 16.2745 148.46 17.2994 151.495 18.7281L147.314 28.6978C144.836 27.6418 142.482 26.7722 140.253 26.0889C138.023 25.3435 135.762 24.9708 133.47 24.9708C129.382 24.9708 127.338 26.0889 127.338 28.3251C127.338 29.1326 127.586 29.878 128.082 30.5613C128.639 31.1824 129.661 31.8657 131.148 32.6111C132.696 33.3565 134.957 34.3504 137.93 35.5927C140.841 36.7729 143.35 38.0152 145.456 39.3197C147.561 40.562 149.172 42.146 150.287 44.0716C151.464 45.9972 152.052 48.4508 152.052 51.4324Z" fill="#D63C46"/>
<path d="M191.08 14.7216C196.779 14.7216 201.393 16.9578 204.924 21.4302C208.454 25.8404 210.219 32.3627 210.219 40.9968C210.219 49.6931 208.392 56.2775 204.738 60.7499C201.083 65.2222 196.407 67.4584 190.709 67.4584C187.054 67.4584 184.143 66.8062 181.975 65.5018C179.807 64.1352 178.042 62.6133 176.679 60.9362H175.936C176.432 63.5451 176.679 66.0297 176.679 68.3902V88.8886H162.836V15.6533H174.078L176.029 22.2687H176.679C178.042 20.2189 179.869 18.4486 182.161 16.9578C184.453 15.467 187.426 14.7216 191.08 14.7216ZM186.621 25.8094C183.028 25.8094 180.489 26.9585 179.002 29.2568C177.516 31.493 176.741 34.8784 176.679 39.4129V40.9037C176.679 45.8109 177.392 49.6 178.816 52.271C180.303 54.8799 182.966 56.1843 186.806 56.1843C189.965 56.1843 192.288 54.8799 193.775 52.271C195.323 49.6 196.097 45.7798 196.097 40.8105C196.097 30.8097 192.938 25.8094 186.621 25.8094Z" fill="#D63C46"/>
<path d="M242.441 14.6284C249.254 14.6284 254.457 16.1192 258.05 19.1008C261.704 22.0203 263.531 26.5237 263.531 32.6111V66.5267H253.869L251.175 59.6318H250.803C248.635 62.3649 246.343 64.3526 243.928 65.5949C241.512 66.8373 238.198 67.4584 233.986 67.4584C229.465 67.4584 225.718 66.154 222.745 63.5451C219.771 60.9362 218.285 56.8676 218.285 51.3392C218.285 45.9351 220.174 41.9596 223.952 39.4129C227.731 36.8661 233.398 35.4374 240.955 35.1268L249.781 34.8473V32.6111C249.781 29.9401 249.069 27.9834 247.644 26.7411C246.281 25.4988 244.361 24.8776 241.884 24.8776C239.406 24.8776 236.991 25.2503 234.637 25.9957C232.283 26.679 229.929 27.5486 227.576 28.6046L223.023 19.194C225.687 17.8274 228.691 16.7404 232.035 15.9329C235.38 15.0632 238.849 14.6284 242.441 14.6284ZM249.781 42.9535L244.392 43.1398C239.933 43.2641 236.836 44.0716 235.101 45.5624C233.367 47.0532 232.5 49.0099 232.5 51.4324C232.5 53.5443 233.119 55.0662 234.358 55.9979C235.597 56.8676 237.207 57.3024 239.189 57.3024C242.162 57.3024 244.671 56.4328 246.715 54.6935C248.759 52.8921 249.781 50.3764 249.781 47.1464V42.9535Z" fill="#D63C46"/>
<path d="M306.038 14.7216C306.72 14.7216 307.525 14.7526 308.454 14.8148C309.383 14.8769 310.126 14.9701 310.684 15.0943L309.662 28.1387C309.166 28.0145 308.516 27.9213 307.711 27.8592C306.906 27.735 306.193 27.6729 305.574 27.6729C303.22 27.6729 300.959 28.1077 298.792 28.9773C296.624 29.7848 294.859 31.1203 293.496 32.9838C292.195 34.8473 291.545 37.3941 291.545 40.6241V66.5267H277.701V15.6533H288.2L290.244 24.2254H290.894C292.381 21.6165 294.425 19.3803 297.026 17.5168C299.628 15.6533 302.632 14.7216 306.038 14.7216Z" fill="#D63C46"/>
<path d="M312.644 15.6533H327.789L337.358 44.2579C337.854 45.6866 338.225 47.1153 338.473 48.544C338.721 49.9727 338.907 51.4945 339.03 53.1095H339.309C339.495 51.4945 339.743 49.9727 340.052 48.544C340.362 47.1153 340.765 45.6866 341.26 44.2579L350.644 15.6533H365.509L344.048 73.0489C342.065 78.3288 339.247 82.2732 335.593 84.8821C331.938 87.5531 327.696 88.8886 322.864 88.8886C321.254 88.8886 319.891 88.7954 318.776 88.6091C317.662 88.4848 316.67 88.3295 315.803 88.1432V77.1486C316.423 77.2728 317.228 77.3971 318.219 77.5213C319.21 77.6455 320.232 77.7076 321.285 77.7076C324.196 77.7076 326.488 76.8069 328.16 75.0056C329.833 73.2663 331.102 71.1544 331.969 68.6697L332.806 66.154L312.644 15.6533Z" fill="#D63C46"/>
<path d="M393.599 14.6284C400.412 14.6284 405.615 16.1192 409.208 19.1008C412.862 22.0203 414.689 26.5237 414.689 32.6111V66.5267H405.027L402.332 59.6318H401.961C399.793 62.3649 397.501 64.3526 395.086 65.5949C392.67 66.8373 389.356 67.4584 385.144 67.4584C380.623 67.4584 376.875 66.154 373.902 63.5451C370.929 60.9362 369.443 56.8676 369.443 51.3392C369.443 45.9351 371.332 41.9596 375.11 39.4129C378.888 36.8661 384.556 35.4374 392.112 35.1268L400.939 34.8473V32.6111C400.939 29.9401 400.226 27.9834 398.802 26.7411C397.439 25.4988 395.519 24.8776 393.042 24.8776C390.564 24.8776 388.148 25.2503 385.795 25.9957C383.441 26.679 381.087 27.5486 378.734 28.6046L374.181 19.194C376.844 17.8274 379.849 16.7404 383.193 15.9329C386.538 15.0632 390.007 14.6284 393.599 14.6284ZM400.939 42.9535L395.55 43.1398C391.09 43.2641 387.993 44.0716 386.259 45.5624C384.525 47.0532 383.658 49.0099 383.658 51.4324C383.658 53.5443 384.277 55.0662 385.516 55.9979C386.755 56.8676 388.365 57.3024 390.347 57.3024C393.32 57.3024 395.829 56.4328 397.873 54.6935C399.917 52.8921 400.939 50.3764 400.939 47.1464V42.9535Z" fill="#D63C46"/>
<path d="M457.661 14.7216C463.111 14.7216 467.478 16.2124 470.761 19.194C474.044 22.1134 475.685 26.8343 475.685 33.3565V66.5267H461.842V36.804C461.842 33.1391 461.191 30.406 459.891 28.6046C458.59 26.7411 456.515 25.8094 453.666 25.8094C449.454 25.8094 446.574 27.2691 445.025 30.1886C443.477 33.0459 442.703 37.1767 442.703 42.5808V66.5267H428.859V15.6533H439.451L441.309 22.1756H442.052C443.663 19.5667 445.861 17.6721 448.649 16.4919C451.498 15.3117 454.502 14.7216 457.661 14.7216Z" fill="#D63C46"/>
<path d="M243.095 126.217H238.705V100.902H230.007V97.1112H251.794V100.902H243.095V126.217Z" fill="#D63C46"/>
<path d="M261.515 103.837C263.439 103.837 265.092 104.245 266.474 105.06C267.856 105.848 268.913 106.99 269.645 108.484C270.403 109.979 270.783 111.745 270.783 113.784V116.148H256.068C256.122 118.404 256.705 120.129 257.816 121.325C258.954 122.521 260.539 123.119 262.572 123.119C263.981 123.119 265.228 122.996 266.311 122.752C267.422 122.48 268.561 122.086 269.726 121.57V125.157C268.642 125.646 267.531 126.013 266.393 126.257C265.282 126.502 263.954 126.624 262.409 126.624C260.296 126.624 258.426 126.203 256.8 125.361C255.174 124.518 253.9 123.268 252.979 121.61C252.085 119.925 251.638 117.86 251.638 115.414C251.638 112.941 252.044 110.849 252.857 109.137C253.697 107.425 254.849 106.12 256.312 105.223C257.803 104.299 259.537 103.837 261.515 103.837ZM261.515 107.18C259.97 107.18 258.724 107.683 257.775 108.688C256.854 109.694 256.312 111.12 256.15 112.968H266.474C266.474 111.827 266.298 110.822 265.946 109.952C265.593 109.082 265.051 108.403 264.32 107.914C263.588 107.425 262.653 107.18 261.515 107.18Z" fill="#D63C46"/>
<path d="M284.979 126.624C282.974 126.624 281.213 126.23 279.695 125.442C278.178 124.654 276.999 123.431 276.159 121.773C275.319 120.088 274.899 117.955 274.899 115.373C274.899 112.656 275.346 110.455 276.24 108.77C277.162 107.085 278.395 105.848 279.939 105.06C281.511 104.245 283.299 103.837 285.305 103.837C286.524 103.837 287.662 103.973 288.719 104.245C289.803 104.49 290.697 104.775 291.402 105.101L290.101 108.607C289.342 108.308 288.529 108.05 287.662 107.832C286.822 107.615 286.023 107.506 285.264 107.506C283.909 107.506 282.784 107.805 281.89 108.403C281.023 108.974 280.373 109.843 279.939 111.012C279.533 112.153 279.329 113.593 279.329 115.333C279.329 116.99 279.546 118.39 279.98 119.531C280.413 120.673 281.05 121.542 281.89 122.14C282.757 122.711 283.828 122.996 285.101 122.996C286.321 122.996 287.391 122.86 288.313 122.589C289.234 122.317 290.101 121.964 290.914 121.529V125.279C290.128 125.741 289.275 126.081 288.353 126.298C287.432 126.516 286.307 126.624 284.979 126.624Z" fill="#D63C46"/>
<path d="M300.394 103.511C300.394 104.191 300.367 104.87 300.313 105.549C300.259 106.229 300.205 106.786 300.15 107.221H300.435C300.896 106.46 301.465 105.835 302.142 105.346C302.847 104.856 303.619 104.49 304.459 104.245C305.326 104 306.207 103.878 307.101 103.878C308.835 103.878 310.285 104.163 311.45 104.734C312.643 105.278 313.537 106.147 314.133 107.343C314.756 108.512 315.068 110.033 315.068 111.909V126.217H310.8V112.52C310.8 110.808 310.434 109.531 309.703 108.688C308.998 107.819 307.86 107.384 306.288 107.384C304.798 107.384 303.619 107.683 302.752 108.281C301.912 108.878 301.302 109.762 300.923 110.93C300.57 112.072 300.394 113.485 300.394 115.17V126.217H296.086V95.2361H300.394V103.511Z" fill="#D63C46"/>
<path d="M332.786 103.837C335.333 103.837 337.284 104.476 338.639 105.753C339.994 107.03 340.671 109.082 340.671 111.909V126.217H336.403V112.52C336.403 110.808 336.037 109.531 335.306 108.688C334.601 107.819 333.463 107.384 331.891 107.384C329.669 107.384 328.125 108.05 327.258 109.381C326.418 110.713 325.997 112.629 325.997 115.129V126.217H321.689V104.245H325.103L325.713 107.18H325.957C326.445 106.419 327.041 105.794 327.745 105.305C328.45 104.816 329.236 104.449 330.103 104.204C330.97 103.96 331.864 103.837 332.786 103.837Z" fill="#D63C46"/>
<path d="M366.6 115.21C366.6 117.031 366.356 118.648 365.868 120.061C365.38 121.474 364.689 122.67 363.795 123.649C362.901 124.627 361.817 125.374 360.543 125.891C359.269 126.38 357.833 126.624 356.234 126.624C354.771 126.624 353.416 126.38 352.17 125.891C350.923 125.374 349.839 124.627 348.918 123.649C348.024 122.67 347.319 121.474 346.804 120.061C346.289 118.648 346.032 117.018 346.032 115.17C346.032 112.751 346.438 110.699 347.251 109.014C348.091 107.329 349.284 106.052 350.828 105.182C352.4 104.286 354.243 103.837 356.356 103.837C358.362 103.837 360.123 104.286 361.641 105.182C363.185 106.052 364.391 107.329 365.258 109.014C366.152 110.699 366.6 112.765 366.6 115.21ZM350.463 115.21C350.463 116.841 350.666 118.254 351.072 119.45C351.479 120.618 352.116 121.515 352.983 122.14C353.85 122.765 354.961 123.078 356.316 123.078C357.671 123.078 358.782 122.765 359.649 122.14C360.516 121.515 361.153 120.618 361.559 119.45C361.966 118.254 362.169 116.841 362.169 115.21C362.169 113.526 361.952 112.112 361.519 110.971C361.112 109.83 360.475 108.96 359.608 108.362C358.768 107.737 357.657 107.425 356.275 107.425C354.243 107.425 352.766 108.104 351.845 109.463C350.923 110.822 350.463 112.737 350.463 115.21Z" fill="#D63C46"/>
<path d="M376.37 126.217H372.062V95.2361H376.37V126.217Z" fill="#D63C46"/>
<path d="M402.444 115.21C402.444 117.031 402.2 118.648 401.712 120.061C401.225 121.474 400.534 122.67 399.639 123.649C398.745 124.627 397.661 125.374 396.387 125.891C395.114 126.38 393.678 126.624 392.079 126.624C390.616 126.624 389.261 126.38 388.014 125.891C386.768 125.374 385.684 124.627 384.762 123.649C383.868 122.67 383.164 121.474 382.649 120.061C382.134 118.648 381.876 117.018 381.876 115.17C381.876 112.751 382.283 110.699 383.096 109.014C383.936 107.329 385.128 106.052 386.673 105.182C388.244 104.286 390.087 103.837 392.201 103.837C394.206 103.837 395.967 104.286 397.485 105.182C399.03 106.052 400.235 107.329 401.103 109.014C401.997 110.699 402.444 112.765 402.444 115.21ZM386.307 115.21C386.307 116.841 386.51 118.254 386.917 119.45C387.323 120.618 387.96 121.515 388.827 122.14C389.694 122.765 390.805 123.078 392.16 123.078C393.515 123.078 394.626 122.765 395.493 122.14C396.36 121.515 396.997 120.618 397.404 119.45C397.81 118.254 398.013 116.841 398.013 115.21C398.013 113.526 397.797 112.112 397.363 110.971C396.957 109.83 396.32 108.96 395.453 108.362C394.613 107.737 393.502 107.425 392.12 107.425C390.087 107.425 388.61 108.104 387.689 109.463C386.768 110.822 386.307 112.737 386.307 115.21Z" fill="#D63C46"/>
<path d="M415.466 103.837C416.876 103.837 418.149 104.109 419.287 104.653C420.425 105.196 421.387 106.025 422.173 107.139H422.377L422.864 104.245H426.36V126.502C426.36 128.567 425.994 130.307 425.262 131.72C424.531 133.133 423.406 134.193 421.889 134.899C420.398 135.633 418.515 136 416.239 136C414.667 136 413.217 135.891 411.889 135.674C410.562 135.456 409.342 135.117 408.231 134.655V130.864C409.017 131.244 409.844 131.557 410.711 131.801C411.578 132.073 412.499 132.263 413.475 132.372C414.45 132.508 415.453 132.576 416.483 132.576C418.271 132.576 419.653 132.059 420.629 131.027C421.604 130.021 422.092 128.595 422.092 126.747V126.013C422.092 125.66 422.106 125.198 422.133 124.627C422.16 124.029 422.187 123.594 422.214 123.322H422.051C421.293 124.464 420.358 125.306 419.247 125.85C418.163 126.366 416.903 126.624 415.466 126.624C412.702 126.624 410.535 125.632 408.963 123.649C407.418 121.638 406.646 118.852 406.646 115.292C406.646 112.9 406.998 110.862 407.703 109.177C408.407 107.465 409.41 106.147 410.711 105.223C412.038 104.299 413.624 103.837 415.466 103.837ZM416.361 107.425C415.223 107.425 414.261 107.737 413.475 108.362C412.689 108.96 412.093 109.843 411.686 111.012C411.28 112.18 411.076 113.621 411.076 115.333C411.076 117.887 411.524 119.83 412.418 121.162C413.339 122.494 414.681 123.159 416.442 123.159C417.472 123.159 418.339 123.023 419.043 122.752C419.775 122.48 420.371 122.059 420.832 121.488C421.32 120.917 421.672 120.197 421.889 119.328C422.133 118.431 422.255 117.357 422.255 116.107V115.292C422.255 113.417 422.038 111.909 421.604 110.767C421.198 109.599 420.561 108.756 419.694 108.24C418.827 107.696 417.716 107.425 416.361 107.425Z" fill="#D63C46"/>
<path d="M437.421 104.245V126.217H433.112V104.245H437.421ZM435.307 95.8883C435.957 95.8883 436.527 96.0786 437.014 96.459C437.502 96.8395 437.746 97.4781 437.746 98.3749C437.746 99.2445 437.502 99.8832 437.014 100.291C436.527 100.671 435.957 100.862 435.307 100.862C434.603 100.862 434.006 100.671 433.519 100.291C433.058 99.8832 432.828 99.2445 432.828 98.3749C432.828 97.4781 433.058 96.8395 433.519 96.459C434.006 96.0786 434.603 95.8883 435.307 95.8883Z" fill="#D63C46"/>
<path d="M452.804 103.837C454.728 103.837 456.381 104.245 457.763 105.06C459.145 105.848 460.202 106.99 460.934 108.484C461.693 109.979 462.072 111.745 462.072 113.784V116.148H447.358C447.412 118.404 447.994 120.129 449.105 121.325C450.243 122.521 451.829 123.119 453.861 123.119C455.27 123.119 456.517 122.996 457.601 122.752C458.712 122.48 459.85 122.086 461.015 121.57V125.157C459.931 125.646 458.82 126.013 457.682 126.257C456.571 126.502 455.243 126.624 453.699 126.624C451.585 126.624 449.715 126.203 448.089 125.361C446.463 124.518 445.19 123.268 444.268 121.61C443.374 119.925 442.927 117.86 442.927 115.414C442.927 112.941 443.333 110.849 444.146 109.137C444.986 107.425 446.138 106.12 447.601 105.223C449.092 104.299 450.826 103.837 452.804 103.837ZM452.804 107.18C451.26 107.18 450.013 107.683 449.065 108.688C448.143 109.694 447.601 111.12 447.439 112.968H457.763C457.763 111.827 457.587 110.822 457.235 109.952C456.883 109.082 456.341 108.403 455.609 107.914C454.877 107.425 453.942 107.18 452.804 107.18Z" fill="#D63C46"/>
<path d="M482 120.021C482 121.461 481.648 122.67 480.943 123.649C480.239 124.627 479.222 125.374 477.895 125.891C476.567 126.38 474.968 126.624 473.098 126.624C471.554 126.624 470.226 126.502 469.115 126.257C468.031 126.04 467.028 125.714 466.107 125.279V121.488C467.082 121.95 468.207 122.371 469.481 122.752C470.754 123.105 472.001 123.282 473.22 123.282C474.846 123.282 476.011 123.023 476.716 122.507C477.447 121.991 477.813 121.298 477.813 120.428C477.813 119.939 477.678 119.504 477.407 119.124C477.136 118.716 476.621 118.308 475.862 117.901C475.131 117.466 474.047 116.977 472.61 116.433C471.228 115.863 470.05 115.306 469.074 114.762C468.099 114.191 467.353 113.526 466.838 112.765C466.324 111.976 466.066 110.971 466.066 109.748C466.066 107.846 466.825 106.392 468.342 105.386C469.887 104.354 471.919 103.837 474.44 103.837C475.767 103.837 477.014 103.973 478.179 104.245C479.371 104.49 480.523 104.87 481.634 105.386L480.211 108.688C479.588 108.389 478.938 108.145 478.26 107.954C477.61 107.737 476.946 107.56 476.269 107.425C475.618 107.289 474.941 107.221 474.236 107.221C472.936 107.221 471.947 107.425 471.269 107.832C470.592 108.24 470.253 108.81 470.253 109.544C470.253 110.061 470.402 110.509 470.7 110.889C471.025 111.27 471.581 111.65 472.367 112.031C473.152 112.411 474.223 112.873 475.578 113.417C476.933 113.933 478.084 114.463 479.033 115.007C480.008 115.55 480.74 116.216 481.228 117.004C481.743 117.792 482 118.798 482 120.021Z" fill="#D63C46"/>
</g>
<defs>
<clipPath id="clip0_26_89">
<rect width="482" height="136" fill="white"/>
</clipPath>
</defs>
</svg>
