<?xml version="1.0" encoding="UTF-8"?>
<svg id="Camada_1" data-name="Camada 1" xmlns="http://www.w3.org/2000/svg" viewBox="0 0 512 197.2">
  <defs>
    <style>
      .cls-1 {
        fill: #d63c46;
        stroke-width: 0px;
      }
    </style>
  </defs>
  <path class="cls-1" d="m156.98,195.27h-47.04l-51.14-82.32-17.5,12.58v69.74H0V0h41.3v89.43c2.73-3.83,5.47-7.66,8.2-11.48,2.73-3.83,5.47-7.66,8.2-11.49L110.49,0h45.95l-68.1,86.42,68.65,108.85Z"/>
  <path class="cls-1" d="m255.63,157.05c0,12.23-4.41,21.98-13.22,29.25-8.82,7.27-21.33,10.91-37.55,10.91-14.54,0-27.54-2.77-38.99-8.3v-27.22c6.56,2.83,13.35,5.44,20.36,7.82,7.01,2.38,14,3.57,20.95,3.57s12.32-1.38,15.35-4.15c3.02-2.77,4.54-6.28,4.54-10.52,0-3.48-1.19-6.43-3.57-8.88-2.38-2.44-5.57-4.73-9.56-6.85-3.99-2.12-8.56-4.41-13.71-6.85-3.22-1.54-6.69-3.38-10.42-5.5-3.74-2.12-7.31-4.76-10.71-7.91-3.41-3.15-6.21-6.98-8.4-11.49-2.19-4.5-3.28-9.91-3.28-16.21,0-12.36,4.18-21.98,12.55-28.86,8.37-6.88,19.75-10.33,34.17-10.33,7.2,0,14.03.84,20.46,2.51,6.43,1.67,13.25,4.05,20.46,7.14l-9.46,22.78c-6.31-2.57-11.97-4.57-16.99-5.98-5.02-1.42-10.17-2.12-15.44-2.12-5.53,0-9.78,1.29-12.74,3.86-2.96,2.58-4.44,5.92-4.44,10.04,0,4.89,2.19,8.75,6.57,11.58,4.37,2.83,10.87,6.31,19.5,10.42,7.08,3.35,13.09,6.82,18.05,10.42,4.95,3.61,8.78,7.85,11.48,12.74,2.7,4.89,4.05,10.94,4.05,18.15Z"/>
  <path class="cls-1" d="m324.74,57.43c17.76,0,30.72,3.83,38.9,11.49,8.17,7.66,12.26,18.18,12.26,31.56,0,8.11-1.67,15.64-5.02,22.59-3.35,6.95-8.92,12.55-16.7,16.79-7.79,4.25-18.37,6.37-31.76,6.37h-12.55v49.04h-29.15V57.43h44.02Zm-1.55,23.94h-13.32v40.93h9.65c8.24,0,14.77-1.64,19.6-4.92,4.83-3.28,7.24-8.59,7.24-15.93,0-13.39-7.72-20.08-23.17-20.08Z"/>
  <path class="cls-1" d="m442.12,57.43c18.79,0,32.66,3.41,41.61,10.23,8.94,6.82,13.42,17.18,13.42,31.08,0,6.31-1.19,11.81-3.57,16.5-2.38,4.7-5.53,8.69-9.46,11.97-3.93,3.28-8.14,5.95-12.65,8.01l40.54,60.04h-32.43l-32.82-52.9h-15.64v52.9h-29.15V57.43h40.15Zm-2.12,23.94h-8.88v37.26h9.46c9.65,0,16.57-1.61,20.75-4.82,4.18-3.22,6.27-7.98,6.27-14.29s-2.25-11.23-6.76-13.99c-4.51-2.77-11.46-4.15-20.85-4.15Z"/>
</svg>