<?xml version="1.0" encoding="UTF-8"?>
<svg id="Camada_1" data-name="Camada 1" xmlns="http://www.w3.org/2000/svg" viewBox="0 0 512 512">
  <defs>
    <style>
      .cls-1 {
        fill: #00414c;
      }

      .cls-1, .cls-2, .cls-3, .cls-4, .cls-5 {
        stroke-width: 0px;
      }

      .cls-2 {
        fill: #bbead4;
      }

      .cls-3 {
        fill: #85cca6;
      }

      .cls-4 {
        fill: #1ad4ff;
      }

      .cls-5 {
        fill: #15ed8d;
      }
    </style>
  </defs>
  <g>
    <rect class="cls-5" x="0" y="93.42" width="410.01" height="345.87" rx="18" ry="18"/>
    <path class="cls-2" d="m9.8,132.62h390.41v286.88c0,5.52-4.48,10-10,10H19.8c-5.52,0-10-4.48-10-10V132.62h0Z"/>
    <circle class="cls-2" cx="24.22" cy="114.36" r="5.85"/>
    <circle class="cls-2" cx="42.39" cy="114.36" r="5.85"/>
    <circle class="cls-2" cx="59.78" cy="114.36" r="5.85"/>
    <g>
      <rect class="cls-3" x="18.37" y="143.64" width="61.25" height="6.12"/>
      <rect class="cls-3" x="33.31" y="154.55" width="99.89" height="6.12"/>
      <rect class="cls-3" x="33.31" y="187.26" width="99.89" height="6.12"/>
      <rect class="cls-3" x="50.38" y="165.45" width="182.17" height="6.12"/>
      <rect class="cls-3" x="50.38" y="176.36" width="182.17" height="6.12"/>
      <rect class="cls-3" x="18.37" y="198.17" width="61.25" height="6.12"/>
      <rect class="cls-3" x="33.31" y="209.08" width="99.89" height="6.12"/>
      <rect class="cls-3" x="69.66" y="241.79" width="116.89" height="6.12"/>
      <rect class="cls-3" x="50.38" y="219.98" width="124.31" height="6.12"/>
      <rect class="cls-3" x="69.66" y="230.89" width="216.94" height="6.12"/>
      <rect class="cls-3" x="33.31" y="252.7" width="61.25" height="6.12"/>
      <rect class="cls-3" x="18.37" y="263.61" width="71.44" height="6.12"/>
      <rect class="cls-3" x="33.31" y="296.33" width="99.89" height="6.12"/>
      <rect class="cls-3" x="50.38" y="274.51" width="182.17" height="6.12"/>
      <rect class="cls-3" x="50.38" y="285.42" width="182.17" height="6.12"/>
      <rect class="cls-3" x="18.37" y="307.23" width="61.25" height="6.12"/>
      <rect class="cls-3" x="33.31" y="318.14" width="99.89" height="6.12"/>
      <rect class="cls-3" x="33.31" y="350.86" width="99.89" height="6.12"/>
      <rect class="cls-3" x="50.38" y="329.04" width="182.17" height="6.12"/>
      <rect class="cls-3" x="50.38" y="339.95" width="182.17" height="6.12"/>
    </g>
  </g>
  <g>
    <rect class="cls-4" x="270.64" y="72.71" width="241.36" height="241.36" rx="18" ry="18"/>
    <path class="cls-1" d="m385.53,272.18c-11.08-.12-19.82-2.53-26.2-7.23-6.39-4.7-9.58-11.87-9.58-21.51v-26.56c0-6.15-1.9-10.51-5.69-13.1-3.79-2.59-9.24-3.88-16.35-3.88v-13.19c7.11-.12,12.56-1.45,16.35-3.98s5.69-6.81,5.69-12.83v-26.74c0-9.64,3.32-16.81,9.94-21.51s15.24-7.04,25.84-7.04v13.01c-6.26.24-11.17,1.66-14.72,4.25-3.56,2.59-5.33,6.84-5.33,12.74v26.02c0,12.41-6.57,19.76-19.7,22.05v1.08c13.12,2.29,19.7,9.64,19.7,22.04v26.57c0,5.9,1.74,10.15,5.24,12.74,3.49,2.59,8.43,3.94,14.82,4.07v13.01Z"/>
    <path class="cls-1" d="m397.1,272.18v-13.01c6.26-.24,11.18-1.66,14.73-4.25,3.55-2.6,5.33-6.84,5.33-12.74v-26.2c0-12.4,6.57-19.76,19.7-22.04v-1.09c-13.13-2.29-19.7-9.63-19.7-22.04v-26.38c0-5.9-1.74-10.15-5.24-12.74-3.5-2.59-8.43-3.94-14.82-4.07v-13.01c11.09.12,19.82,2.53,26.21,7.23,6.38,4.7,9.57,11.87,9.57,21.5v26.38c0,6.15,1.9,10.51,5.7,13.1,3.79,2.6,9.24,3.89,16.35,3.89v13.19c-7.11.12-12.56,1.44-16.35,3.97s-5.7,6.81-5.7,12.83v26.93c0,9.64-3.31,16.81-9.93,21.51s-15.24,7.04-25.85,7.04Z"/>
  </g>
</svg>